<?xml version="1.0" encoding="utf-8"?>
<!-- Generator: Adobe Illustrator 21.1.0, SVG Export Plug-In . SVG Version: 6.00 Build 0)  -->
<svg version="1.1" xmlns="http://www.w3.org/2000/svg" xmlns:xlink="http://www.w3.org/1999/xlink" x="0px" y="0px" width="864px"
	 height="784px" viewBox="0 0 864 784" enable-background="new 0 0 864 784" xml:space="preserve">
<g id="Layer_1">
</g>
<g id="Layer_2">
	<g>
		<g>
			<polyline fill="none" stroke="#666666" stroke-width="2" stroke-miterlimit="10" points="556.7,629.6 556.7,635.6 550.7,635.6 
							"/>
			
				<line fill="none" stroke="#666666" stroke-width="2" stroke-miterlimit="10" stroke-dasharray="12.4713,12.4713" x1="538.2" y1="635.6" x2="320" y2="635.6"/>
			<polyline fill="none" stroke="#666666" stroke-width="2" stroke-miterlimit="10" points="313.8,635.6 307.8,635.6 307.8,629.6 
							"/>
			
				<line fill="none" stroke="#666666" stroke-width="2" stroke-miterlimit="10" stroke-dasharray="12.3807,12.3807" x1="307.8" y1="617.3" x2="307.8" y2="252"/>
			<polyline fill="none" stroke="#666666" stroke-width="2" stroke-miterlimit="10" points="307.8,245.8 307.8,239.8 313.8,239.8 
							"/>
			
				<line fill="none" stroke="#666666" stroke-width="2" stroke-miterlimit="10" stroke-dasharray="12.4713,12.4713" x1="326.2" y1="239.8" x2="544.5" y2="239.8"/>
			<polyline fill="none" stroke="#666666" stroke-width="2" stroke-miterlimit="10" points="550.7,239.8 556.7,239.8 556.7,245.8 
							"/>
			
				<line fill="none" stroke="#666666" stroke-width="2" stroke-miterlimit="10" stroke-dasharray="12.3807,12.3807" x1="556.7" y1="258.2" x2="556.7" y2="623.5"/>
		</g>
	</g>
	<g>
		<g>
			<line fill="none" stroke="#808080" stroke-width="3" stroke-miterlimit="10" x1="331.4" y1="644.9" x2="331.4" y2="695.5"/>
			<g>
				<polygon fill="#808080" points="326.3,650.8 331.4,645.8 336.5,650.8 336.5,646.5 331.4,641.4 326.3,646.5 				"/>
			</g>
			<g>
				<polygon fill="#808080" points="326.3,689.5 331.4,694.6 336.5,689.5 336.5,693.8 331.4,698.9 326.3,693.8 				"/>
			</g>
		</g>
	</g>
	<text transform="matrix(1 0 0 1 343.7631 675.4413)"><tspan x="0" y="0" fill="#808080" font-family="'Calibri'" font-size="24px">Ma</tspan><tspan x="32" y="0" fill="#808080" font-family="'Calibri'" font-size="24px">r</tspan><tspan x="40.1" y="0" fill="#808080" font-family="'Calibri'" font-size="24px">g</tspan><tspan x="51.2" y="0" fill="#808080" font-family="'Calibri'" font-size="24px">em i</tspan><tspan x="93.2" y="0" fill="#808080" font-family="'Calibri'" font-size="24px">n</tspan><tspan x="105.7" y="0" fill="#808080" font-family="'Calibri'" font-size="24px">f</tspan><tspan x="112.4" y="0" fill="#808080" font-family="'Calibri'" font-size="24px">erior</tspan></text>
	<g>
		<g>
			<line fill="none" stroke="#808080" stroke-width="3" stroke-miterlimit="10" x1="249.7" y1="545.3" x2="301.3" y2="545.3"/>
			<g>
				<polygon fill="#808080" points="255.7,550.4 250.6,545.3 255.7,540.2 251.4,540.2 246.3,545.3 251.4,550.4 				"/>
			</g>
			<g>
				<polygon fill="#808080" points="295.4,550.4 300.4,545.3 295.4,540.2 299.7,540.2 304.8,545.3 299.7,550.4 				"/>
			</g>
		</g>
	</g>
	<text transform="matrix(0 -1 1 0 284.3105 532.9608)"><tspan x="0" y="0" fill="#808080" font-family="'Calibri'" font-size="24px">Ma</tspan><tspan x="32" y="0" fill="#808080" font-family="'Calibri'" font-size="24px">r</tspan><tspan x="40.1" y="0" fill="#808080" font-family="'Calibri'" font-size="24px">g</tspan><tspan x="51.2" y="0" fill="#808080" font-family="'Calibri'" font-size="24px">em esque</tspan><tspan x="146.2" y="0" fill="#808080" font-family="'Calibri'" font-size="24px">r</tspan><tspan x="154.2" y="0" fill="#808080" font-family="'Calibri'" font-size="24px">da</tspan></text>
	<g>
		<g>
			<line fill="none" stroke="#808080" stroke-width="3" stroke-miterlimit="10" x1="327.8" y1="176.8" x2="327.8" y2="228.4"/>
			<g>
				<polygon fill="#808080" points="322.7,182.7 327.8,177.7 332.9,182.7 332.9,178.4 327.8,173.3 322.7,178.4 				"/>
			</g>
			<g>
				<polygon fill="#808080" points="322.7,222.4 327.8,227.5 332.9,222.4 332.9,226.7 327.8,231.8 322.7,226.7 				"/>
			</g>
		</g>
	</g>
	<text transform="matrix(1 0 0 1 340.144 211.3418)"><tspan x="0" y="0" fill="#808080" font-family="'Calibri'" font-size="24px">Ma</tspan><tspan x="32" y="0" fill="#808080" font-family="'Calibri'" font-size="24px">r</tspan><tspan x="40.1" y="0" fill="#808080" font-family="'Calibri'" font-size="24px">g</tspan><tspan x="51.2" y="0" fill="#808080" font-family="'Calibri'" font-size="24px">em superior</tspan></text>
	<g>
		<g>
			<line fill="none" stroke="#808080" stroke-width="3" stroke-miterlimit="10" x1="614.1" y1="341.1" x2="562.5" y2="341.1"/>
			<g>
				<polygon fill="#808080" points="608.1,336 613.2,341.1 608.1,346.2 612.4,346.2 617.5,341.1 612.4,336 				"/>
			</g>
			<g>
				<polygon fill="#808080" points="568.4,336 563.3,341.1 568.4,346.2 564.1,346.2 559,341.1 564.1,336 				"/>
			</g>
		</g>
	</g>
	<text transform="matrix(0 1 -1 0 579.4799 353.4585)"><tspan x="0" y="0" fill="#808080" font-family="'Calibri'" font-size="24px">Ma</tspan><tspan x="32" y="0" fill="#808080" font-family="'Calibri'" font-size="24px">r</tspan><tspan x="40.1" y="0" fill="#808080" font-family="'Calibri'" font-size="24px">g</tspan><tspan x="51.2" y="0" fill="#808080" font-family="'Calibri'" font-size="24px">em di</tspan><tspan x="105.8" y="0" fill="#808080" font-family="'Calibri'" font-size="24px">r</tspan><tspan x="113.9" y="0" fill="#808080" font-family="'Calibri'" font-size="24px">ei</tspan><tspan x="131.3" y="0" fill="#808080" font-family="'Calibri'" font-size="24px">t</tspan><tspan x="139.1" y="0" fill="#808080" font-family="'Calibri'" font-size="24px">a</tspan></text>
</g>
<g id="Layer_3">
	<rect x="243.2" y="168.9" fill="none" stroke="#000000" stroke-width="2" stroke-miterlimit="10" width="377.6" height="534"/>
	<g>
		<g>
			<line fill="none" stroke="#4D4D4D" stroke-width="3" stroke-miterlimit="10" x1="252.9" y1="134.9" x2="255.4" y2="134.9"/>
			
				<line fill="none" stroke="#4D4D4D" stroke-width="3" stroke-miterlimit="10" stroke-dasharray="1.980332e-02,4.9409" x1="260.3" y1="134.9" x2="262.8" y2="134.9"/>
			
				<line fill="none" stroke="#4D4D4D" stroke-width="3" stroke-miterlimit="10" stroke-dasharray="4.9508,4.9409,1.980332e-02,4.9409" x1="265.3" y1="134.9" x2="604.4" y2="134.9"/>
			<line fill="none" stroke="#4D4D4D" stroke-width="3" stroke-miterlimit="10" x1="606.9" y1="134.9" x2="609.4" y2="134.9"/>
			<g>
				<polygon fill="#4D4D4D" points="257.9,141.5 255.1,134.9 257.9,128.2 242.1,134.9 				"/>
			</g>
			<g>
				<polygon fill="#4D4D4D" points="604.3,141.5 607.1,134.9 604.3,128.2 620.1,134.9 				"/>
			</g>
		</g>
	</g>
	<text transform="matrix(1 0 0 1 382.883 110.4905)" fill="#4D4D4D" font-family="'Calibri'" font-size="36px">210mm</text>
	<g>
		<g>
			<line fill="none" stroke="#4D4D4D" stroke-width="3" stroke-miterlimit="10" x1="206.4" y1="179.6" x2="206.4" y2="182.1"/>
			
				<line fill="none" stroke="#4D4D4D" stroke-width="3" stroke-miterlimit="10" stroke-dasharray="2.009937e-02,5.0148" x1="206.4" y1="187.1" x2="206.4" y2="189.7"/>
			
				<line fill="none" stroke="#4D4D4D" stroke-width="3" stroke-miterlimit="10" stroke-dasharray="5.0248,5.0148,2.009937e-02,5.0148" x1="206.4" y1="192.2" x2="206.4" y2="687.1"/>
			<line fill="none" stroke="#4D4D4D" stroke-width="3" stroke-miterlimit="10" x1="206.4" y1="689.6" x2="206.4" y2="692.1"/>
			<g>
				<polygon fill="#4D4D4D" points="199.8,184.7 206.4,181.9 213.1,184.7 206.4,168.9 				"/>
			</g>
			<g>
				<polygon fill="#4D4D4D" points="199.8,687.1 206.4,689.9 213.1,687.1 206.4,702.9 				"/>
			</g>
		</g>
	</g>
	<text transform="matrix(1 0 0 1 73.883 451.4905)" fill="#4D4D4D" font-family="'Calibri'" font-size="36px">297mm</text>
</g>
</svg>
